<svg aria-hidden="true" style="position: absolute; width: 0; height: 0; overflow: hidden;" version="1.1" xmlns="http://www.w3.org/2000/svg" xmlns:xlink="http://www.w3.org/1999/xlink">
<defs>
<symbol id="icon-Arrow" viewBox="0 0 38 32">
<path d="M0.624 17.218c-0.833-0.833-0.833-2.184 0-3.017l13.576-13.576c0.833-0.833 2.184-0.833 3.017 0s0.833 2.184 0 3.017l-12.068 12.068 12.068 12.068c0.833 0.833 0.833 2.184 0 3.017s-2.184 0.833-3.017 0l-13.576-13.576zM37.892 17.843l-35.759 0v-4.267l35.759-0v4.267z"></path>
</symbol>
<symbol id="icon-cosmetics" viewBox="0 0 32 32">
<path fill="#2b7fff" style="fill: var(--color2, #2b7fff)" d="M8.739 12.049h-8.862c-0.272 0-0.492 0.211-0.492 0.472v2.834c0 0.261 0.22 0.472 0.492 0.472h0.492v10.864c0 0.261 0.22 0.472 0.492 0.472h6.892c0.272 0 0.492-0.211 0.492-0.472v-10.864h0.492c0.272 0 0.492-0.211 0.492-0.472v-2.834c0-0.261-0.22-0.472-0.492-0.472zM3.323 21.023v-0.945h2.954v-0.945h-2.954v-0.945h3.938v6.14h-3.938v-2.362h0.985v-0.945h-0.985zM7.262 17.244h-4.431c-0.272 0-0.492 0.211-0.492 0.472v7.085c0 0.261 0.22 0.472 0.492 0.472h4.431v0.945h-5.908v-10.391h5.908v1.417zM8.246 14.883h-7.877v-1.889h7.877v1.889z"></path>
<path fill="#2b7fff" style="fill: var(--color2, #2b7fff)" d="M15.262 12.137v-3.453c0-0.269-0.22-0.486-0.492-0.486h-0.492v-2.431h0.985v-0.973h-5.415v0.973h3.446v2.431h-0.492c-0.272 0-0.492 0.217-0.492 0.486v3.453c-1.122 0.226-1.969 1.208-1.969 2.382v12.157c0 0.269 0.22 0.486 0.492 0.486h5.908c0.272 0 0.492-0.217 0.492-0.486v-12.157c0-1.174-0.847-2.156-1.969-2.382zM13.293 9.17h0.985v2.918h-0.985v-2.918zM12.8 13.061h1.969c0.814 0 1.477 0.655 1.477 1.459v0.486h-4.923v-0.486c0-0.804 0.663-1.459 1.477-1.459zM16.246 24.245h-4.923v-0.973h1.969v-0.973h-1.969v-6.322h4.923v8.267zM11.323 26.191v-0.973h4.923v0.973h-4.923z"></path>
<path fill="#2b7fff" style="fill: var(--color2, #2b7fff)" d="M27.846 11.444h-8.308c-0.255 0-0.462 0.213-0.462 0.476v14.767c0 0.263 0.206 0.476 0.462 0.476h8.308c0.255 0 0.462-0.213 0.462-0.476v-14.767c0-0.263-0.206-0.476-0.462-0.476zM27.385 26.211h-7.385v-13.814h7.385v13.814z"></path>
<path fill="#2b7fff" style="fill: var(--color2, #2b7fff)" d="M6.77 21.117h-1.231v0.605h1.231v-0.605z"></path>
<path fill="#2b7fff" style="fill: var(--color2, #2b7fff)" d="M15.385 22.326h-1.231v1.209h1.231v-1.209z"></path>
<path fill="#2b7fff" style="fill: var(--color2, #2b7fff)" d="M13.846 21.117c1.188 0 2.154-0.949 2.154-2.116s-0.966-2.116-2.154-2.116c-1.188 0-2.154 0.949-2.154 2.116s0.966 2.116 2.154 2.116zM13.846 17.943c0.594 0 1.077 0.475 1.077 1.058s-0.483 1.058-1.077 1.058c-0.594 0-1.077-0.475-1.077-1.058s0.483-1.058 1.077-1.058z"></path>
<path fill="#2b7fff" style="fill: var(--color2, #2b7fff)" d="M22.539 16.281h2.308c0.891 0 1.615-0.678 1.615-1.511s-0.725-1.511-1.615-1.511h-2.308c-0.891 0-1.615 0.678-1.615 1.511s0.725 1.511 1.615 1.511zM25.539 14.769c0 0.357-0.311 0.648-0.692 0.648h-0.692v-1.296h0.692c0.382 0 0.692 0.291 0.692 0.648zM22.539 14.121h0.692v1.296h-0.692c-0.382 0-0.692-0.291-0.692-0.648s0.311-0.648 0.692-0.648z"></path>
<path fill="#2b7fff" style="fill: var(--color2, #2b7fff)" d="M22.539 21.117h2.308c0.891 0 1.615-0.814 1.615-1.814s-0.725-1.814-1.615-1.814h-2.308c-0.891 0-1.615 0.814-1.615 1.814s0.725 1.814 1.615 1.814zM25.539 19.304c0 0.429-0.311 0.777-0.692 0.777h-0.692v-1.555h0.692c0.382 0 0.692 0.349 0.692 0.777zM22.539 18.526h0.692v1.555h-0.692c-0.382 0-0.692-0.349-0.692-0.777s0.311-0.777 0.692-0.777z"></path>
<path fill="#2b7fff" style="fill: var(--color2, #2b7fff)" d="M22.539 25.35h2.308c0.891 0 1.615-0.814 1.615-1.814s-0.725-1.814-1.615-1.814h-2.308c-0.891 0-1.615 0.814-1.615 1.814s0.725 1.814 1.615 1.814zM25.539 23.536c0 0.429-0.311 0.777-0.692 0.777h-0.692v-1.555h0.692c0.382 0 0.692 0.349 0.692 0.777zM22.539 22.758h0.692v1.555h-0.692c-0.382 0-0.692-0.349-0.692-0.777s0.311-0.777 0.692-0.777z"></path>
</symbol>
<symbol id="icon-crown" viewBox="0 0 32 32">
<path fill="#2b7fff" style="fill: var(--color2, #2b7fff)" d="M29.687 10.326c-0.253-0.229-0.559-0.376-0.883-0.425s-0.655 0.003-0.954 0.15l-6.312 3.080c-0.028 0.017-0.058 0.027-0.090 0.031s-0.063 0-0.094-0.010c-0.030-0.010-0.058-0.027-0.083-0.049s-0.044-0.050-0.059-0.081l-3.688-7.287c-0.15-0.301-0.37-0.553-0.638-0.728s-0.575-0.268-0.887-0.268c-0.312 0-0.618 0.092-0.887 0.268s-0.489 0.427-0.638 0.728l-3.687 7.287c-0.014 0.031-0.034 0.059-0.059 0.081s-0.052 0.039-0.083 0.049c-0.030 0.010-0.062 0.014-0.094 0.010s-0.062-0.014-0.090-0.031l-6.313-3.080c-0.298-0.149-0.628-0.202-0.953-0.155s-0.631 0.194-0.883 0.423-0.442 0.532-0.546 0.873c-0.104 0.342-0.119 0.708-0.043 1.059l3.188 14.891c0.054 0.252 0.154 0.489 0.293 0.697s0.316 0.383 0.519 0.513c0.267 0.18 0.574 0.275 0.888 0.275 0.16-0.002 0.32-0.025 0.475-0.069 5.827-1.773 11.983-1.778 17.812-0.014 0.227 0.072 0.466 0.093 0.701 0.061s0.461-0.116 0.666-0.247 0.383-0.306 0.524-0.516c0.141-0.209 0.242-0.447 0.297-0.701l3.175-14.891c0.079-0.348 0.067-0.713-0.034-1.054s-0.289-0.643-0.541-0.871zM28.812 11.866l-3.188 14.891c-0.017 0.072-0.057 0.136-0.112 0.179-0.062 0.033-0.132 0.043-0.2 0.028-6.094-1.852-12.531-1.852-18.625 0-0.033 0.010-0.067 0.013-0.101 0.008s-0.066-0.017-0.096-0.037c-0.029-0.019-0.055-0.045-0.075-0.076s-0.034-0.065-0.041-0.102l-3.188-14.891c-0.007-0.041-0.006-0.083 0.003-0.124s0.026-0.079 0.050-0.111c0.024-0.033 0.054-0.059 0.088-0.078s0.071-0.029 0.109-0.030l0.1 0.028 6.325 3.094c0.399 0.198 0.851 0.222 1.266 0.069s0.762-0.472 0.972-0.894l3.688-7.287c0.020-0.043 0.050-0.080 0.088-0.106s0.081-0.039 0.125-0.039c0.044 0 0.087 0.014 0.125 0.039s0.068 0.062 0.088 0.106l3.687 7.287c0.21 0.422 0.557 0.742 0.972 0.894s0.867 0.128 1.266-0.069l6.325-3.094c0.043-0.021 0.090-0.028 0.137-0.021s0.090 0.029 0.126 0.062c0.037 0.032 0.064 0.075 0.080 0.124s0.018 0.101 0.008 0.151zM20.75 22.316c-0.021 0.203-0.109 0.391-0.247 0.527s-0.317 0.213-0.503 0.215h-0.075c-2.61-0.289-5.24-0.289-7.85 0-0.197 0.023-0.395-0.041-0.549-0.177s-0.254-0.335-0.276-0.552c-0.018-0.218 0.043-0.435 0.169-0.605s0.308-0.278 0.506-0.302c2.709-0.316 5.441-0.316 8.15 0 0.196 0.024 0.375 0.131 0.501 0.297s0.188 0.38 0.174 0.596z"></path>
</symbol>
<symbol id="icon-game" viewBox="0 0 32 32">
<path fill="#2b7fff" style="fill: var(--color2, #2b7fff)" stroke-linejoin="miter" stroke-linecap="butt" stroke-miterlimit="4" stroke-width="1.3333" stroke="#000" d="M16.061 1.4c-1.050 0-2.031 0.478-2.867 1.261s-1.551 1.874-2.148 3.195c-0.125 0.277-0.244 0.564-0.359 0.861-0.308-0.049-0.617-0.089-0.927-0.12-0.361-0.036-0.712-0.058-1.054-0.066-1.026-0.024-1.964 0.080-2.786 0.329-1.096 0.332-2 0.943-2.525 1.852s-0.601 1.998-0.341 3.113c0.26 1.115 0.847 2.28 1.693 3.457 0.178 0.247 0.367 0.494 0.567 0.742-0.196 0.242-0.385 0.489-0.566 0.741-0.846 1.177-1.433 2.342-1.693 3.457s-0.184 2.204 0.341 3.113c0.525 0.909 1.429 1.52 2.525 1.852s2.398 0.407 3.841 0.263c0.302-0.030 0.611-0.071 0.926-0.12 0.112 0.291 0.231 0.579 0.359 0.863 0.596 1.321 1.312 2.412 2.148 3.195s1.817 1.261 2.867 1.261c1.050 0 2.031-0.478 2.866-1.261s1.551-1.874 2.148-3.195c0.128-0.284 0.248-0.572 0.359-0.862 0.314 0.049 0.623 0.090 0.925 0.12 1.442 0.144 2.745 0.070 3.841-0.263s2.001-0.943 2.526-1.852c0.525-0.909 0.601-1.998 0.341-3.113s-0.847-2.28-1.693-3.457c-0.182-0.252-0.371-0.5-0.567-0.741 0.196-0.242 0.385-0.489 0.567-0.742 0.846-1.177 1.433-2.342 1.693-3.457s0.184-2.204-0.341-3.113c-0.525-0.909-1.429-1.52-2.525-1.852-0.822-0.249-1.76-0.353-2.786-0.329-0.342 0.008-0.694 0.030-1.055 0.066-0.302 0.030-0.612 0.071-0.926 0.12-0.111-0.29-0.231-0.577-0.359-0.861-0.596-1.321-1.312-2.412-2.148-3.195s-1.816-1.261-2.866-1.261zM16.061 2.568c0.7 0 1.387 0.308 2.068 0.946s1.331 1.603 1.882 2.823c0.090 0.199 0.175 0.4 0.255 0.603-1.339 0.298-2.756 0.754-4.205 1.364-1.449-0.61-2.866-1.066-4.205-1.364 0.083-0.207 0.167-0.409 0.255-0.603 0.551-1.22 1.201-2.185 1.882-2.823s1.367-0.945 2.068-0.945zM8.337 7.696c0.113-0.001 0.227-0 0.344 0.002 0.31 0.007 0.632 0.027 0.965 0.060 0.213 0.021 0.43 0.048 0.652 0.080-0.412 1.308-0.725 2.764-0.921 4.324-1.253 0.95-2.357 1.95-3.284 2.96-0.136-0.172-0.268-0.346-0.395-0.524-0.781-1.087-1.292-2.133-1.504-3.041s-0.135-1.657 0.215-2.264c0.35-0.607 0.96-1.047 1.853-1.318 0.586-0.178 1.288-0.273 2.077-0.281zM23.785 7.696c0.789 0.007 1.491 0.103 2.077 0.281 0.893 0.271 1.503 0.711 1.853 1.318s0.427 1.355 0.215 2.264c-0.212 0.909-0.723 1.954-1.504 3.041-0.128 0.177-0.26 0.352-0.395 0.524-0.927-1.010-2.031-2.010-3.284-2.96-0.196-1.56-0.51-3.016-0.922-4.324 0.221-0.032 0.438-0.059 0.651-0.080 0.321-0.033 0.643-0.053 0.965-0.060 0.114-0.003 0.229-0.003 0.344-0.002zM20.665 8.049c0.311 0.965 0.568 2.029 0.76 3.169-0.62-0.419-1.255-0.816-1.903-1.19s-1.308-0.725-1.981-1.053c1.082-0.403 2.133-0.713 3.124-0.926zM11.457 8.049c0.991 0.213 2.041 0.523 3.123 0.926-0.672 0.327-1.333 0.679-1.981 1.053s-1.282 0.77-1.902 1.189c0.192-1.139 0.449-2.203 0.76-3.168zM16.061 9.578c0.95 0.419 1.915 0.906 2.877 1.462s1.867 1.147 2.705 1.761c0.112 1.033 0.173 2.112 0.173 3.223s-0.060 2.189-0.172 3.222c-0.838 0.614-1.743 1.205-2.705 1.761s-1.927 1.043-2.877 1.462c-0.951-0.419-1.916-0.907-2.878-1.462s-1.866-1.147-2.704-1.76c-0.112-1.033-0.173-2.112-0.173-3.222s0.060-2.191 0.173-3.224c0.838-0.614 1.743-1.205 2.705-1.761s1.926-1.043 2.877-1.462zM16.14 11.335l-3.344 2.064 3.344 2.064 3.344-2.064-3.344-2.064zM9.217 13.781c-0.053 0.746-0.079 1.494-0.079 2.243 0 0.762 0.027 1.511 0.079 2.241-0.891-0.736-1.684-1.491-2.364-2.242 0.68-0.751 1.473-1.506 2.364-2.242zM22.905 13.781c0.89 0.736 1.683 1.49 2.363 2.242-0.68 0.751-1.473 1.506-2.363 2.242 0.052-0.746 0.079-1.493 0.078-2.241 0-0.763-0.027-1.511-0.078-2.242zM12.043 14.306v4.075l3.512 2.167v-4.075l-3.512-2.168zM20.234 14.308l-3.511 2.167v4.073l3.511-2.167-0-4.073zM6.091 16.923c0.927 1.011 2.031 2.010 3.284 2.96 0.196 1.56 0.51 3.016 0.921 4.323-0.221 0.032-0.438 0.059-0.65 0.080-1.331 0.133-2.493 0.053-3.386-0.218s-1.502-0.712-1.853-1.318c-0.35-0.607-0.427-1.355-0.215-2.264s0.723-1.954 1.504-3.041c0.128-0.177 0.259-0.352 0.395-0.523zM26.030 16.923c0.138 0.175 0.27 0.349 0.395 0.523 0.781 1.087 1.292 2.133 1.504 3.041s0.135 1.657-0.215 2.264c-0.35 0.606-0.96 1.047-1.853 1.318s-2.054 0.351-3.386 0.218c-0.217-0.022-0.434-0.049-0.65-0.080 0.412-1.308 0.725-2.764 0.921-4.324 1.252-0.95 2.357-1.949 3.283-2.959zM21.425 20.828c-0.192 1.139-0.449 2.204-0.76 3.169-0.991-0.213-2.041-0.523-3.124-0.926 0.673-0.328 1.333-0.679 1.981-1.053s1.282-0.771 1.902-1.189zM10.698 20.829c0.62 0.418 1.254 0.815 1.902 1.189s1.309 0.725 1.981 1.053c-1.082 0.403-2.132 0.713-3.123 0.926-0.311-0.965-0.568-2.029-0.759-3.168zM16.096 20.882l0.043 0.026 0.042-0.026h-0.085zM16.061 23.743c1.449 0.61 2.867 1.067 4.206 1.364-0.081 0.203-0.166 0.405-0.256 0.604-0.551 1.22-1.201 2.185-1.882 2.823s-1.368 0.946-2.068 0.946c-0.7 0-1.387-0.308-2.068-0.946s-1.331-1.603-1.882-2.823c-0.090-0.2-0.175-0.401-0.256-0.604 1.339-0.298 2.756-0.754 4.205-1.364z"></path>
</symbol>
<symbol id="icon-facebook" viewBox="0 0 19 32">
<path d="M17.882 0.236c-1.527-0.162-3.061-0.241-4.596-0.236-5.090 0-8.253 3.242-8.253 8.461v3.543h-4.276c-0.201 0-0.393 0.080-0.535 0.222s-0.222 0.334-0.222 0.535v5.827c0 0.201 0.080 0.393 0.222 0.535s0.334 0.222 0.535 0.222h4.276v11.684c0 0.201 0.080 0.393 0.222 0.535s0.334 0.222 0.535 0.222h6.021c0.201 0 0.393-0.080 0.535-0.222s0.222-0.334 0.222-0.535v-11.684h4.262c0.184 0 0.361-0.067 0.499-0.188s0.227-0.288 0.251-0.471l0.752-5.827c0.014-0.107 0.005-0.215-0.026-0.318s-0.084-0.198-0.155-0.279-0.159-0.146-0.257-0.19c-0.098-0.044-0.205-0.067-0.312-0.067h-5.014v-2.965c0-1.468 0.295-2.081 2.131-2.081h3.086c0.201 0 0.393-0.080 0.535-0.222s0.222-0.334 0.222-0.535v-5.214c0-0.184-0.067-0.361-0.188-0.499s-0.288-0.227-0.471-0.251zM17.027 5.443l-2.331 0.002c-3.265 0-3.643 2.052-3.643 3.595v3.723c0 0.2 0.080 0.393 0.221 0.535s0.334 0.222 0.534 0.222h4.913l-0.559 4.313h-4.353c-0.201 0-0.393 0.080-0.535 0.222s-0.222 0.334-0.222 0.535v11.681h-4.507v-11.681c0-0.201-0.080-0.393-0.222-0.535s-0.334-0.222-0.535-0.222h-4.274v-4.314h4.274c0.201 0 0.393-0.080 0.535-0.222s0.222-0.334 0.222-0.535v-4.301c0-4.35 2.52-6.947 6.74-6.947 1.527 0 2.906 0.083 3.741 0.156v3.773z"></path>
</symbol>
<symbol id="icon-inst" viewBox="0 0 32 32">
<path d="M15.591 8.273c-1.447 0-2.862 0.429-4.066 1.233s-2.141 1.947-2.695 3.284c-0.554 1.337-0.699 2.809-0.416 4.228s0.979 2.724 2.003 3.747c1.023 1.023 2.327 1.72 3.747 2.003s2.891 0.137 4.228-0.416 2.48-1.492 3.284-2.695c0.804-1.203 1.233-2.618 1.233-4.066 0-1.941-0.771-3.802-2.143-5.175s-3.234-2.143-5.175-2.143zM15.591 21c-1.070 0-2.116-0.317-3.005-0.912s-1.583-1.439-1.992-2.428c-0.409-0.988-0.517-2.076-0.308-3.125s0.724-2.013 1.48-2.77 1.72-1.272 2.77-1.48c1.049-0.209 2.137-0.102 3.125 0.308s1.833 1.103 2.428 1.992c0.594 0.889 0.912 1.935 0.912 3.005-0.004 1.433-0.575 2.807-1.589 3.82s-2.387 1.585-3.82 1.589zM22.591 0h-14c-2.278 0-4.464 0.905-6.075 2.516s-2.516 3.796-2.516 6.075v14c0 2.278 0.905 4.463 2.516 6.075s3.796 2.516 6.075 2.516h14c2.278 0 4.463-0.905 6.075-2.516s2.516-3.796 2.516-6.075v-14c0-2.278-0.905-4.464-2.516-6.075s-3.796-2.516-6.075-2.516zM29.273 22.591c0 1.772-0.704 3.472-1.957 4.725s-2.953 1.957-4.725 1.957h-14c-1.772 0-3.472-0.704-4.725-1.957s-1.957-2.953-1.957-4.725v-14c0-1.772 0.704-3.472 1.957-4.725s2.953-1.957 4.725-1.957h14c1.772 0 3.472 0.704 4.725 1.957s1.957 2.953 1.957 4.725v14zM25.455 7.318c0 0.315-0.093 0.622-0.268 0.884s-0.423 0.466-0.714 0.586c-0.291 0.12-0.611 0.152-0.919 0.091s-0.592-0.213-0.815-0.435c-0.223-0.223-0.374-0.506-0.435-0.815s-0.030-0.628 0.090-0.919c0.12-0.291 0.324-0.539 0.586-0.714s0.569-0.268 0.884-0.268c0.422 0 0.827 0.168 1.125 0.466s0.466 0.703 0.466 1.125z"></path>
</symbol>
<symbol id="icon-phone" viewBox="0 0 28 32">
<path d="M26.209 23.222l-0.182-0.227c-1.441-1.821-2.645-2.769-3.678-2.894-0.893-0.122-1.757 0.496-2.675 1.131l-0.981 0.613c-0.118 0.059-0.234 0.106-0.343 0.139-0.574 0.162-2.023 0.258-2.843-0.493-0.955-0.874-2.436-2.472-3.588-3.87-1.1-1.446-2.31-3.249-2.941-4.385-0.533-0.962-0.087-2.307 0.211-2.806 0.059-0.098 0.136-0.195 0.221-0.29l0.865-0.799c0.013-0.013 0.018-0.028 0.029-0.039 0.008-0.008 0.022-0.006 0.032-0.013 0.781-0.659 1.589-1.338 1.7-2.211 0.13-1.025-0.507-2.411-1.95-4.231l-0.176-0.227c-0.893-1.145-2.244-2.877-4.185-2.591-0.763 0.113-1.445 0.374-2.148 0.815-0.007 0.004-0.011 0.013-0.017 0.017s-0.013 0.004-0.018 0.008l-0.979 0.725c-0.010 0.006-0.015 0.018-0.025 0.027-0.007 0.007-0.018 0.008-0.027 0.015-0.113 0.095-0.227 0.193-0.339 0.294-0.993 0.885-3.142 3.454-1.676 8.205 0.946 3.069 2.898 6.65 5.657 10.377l-0.027 0.022 1.522 1.896 0.013-0.010c2.992 3.539 6.037 6.275 8.827 7.931 1.862 1.106 3.489 1.471 4.827 1.471 1.761 0 3.023-0.633 3.655-1.044l0.398-0.266c0.045-0.031 0.077-0.074 0.109-0.113l0.867-0.652c0.010-0.008 0.015-0.020 0.025-0.028 0.004-0.004 0.011-0.003 0.017-0.007 0.616-0.563 1.043-1.152 1.34-1.851 0.769-1.791-0.608-3.506-1.518-4.641zM26.698 27.424c-0.231 0.543-0.568 1.005-1.056 1.453l-1.289 0.97c-1.168 0.759-3.664 1.697-7.29-0.456-2.79-1.656-5.862-4.456-8.884-8.098l-0.818-1.033c-2.846-3.774-4.848-7.389-5.793-10.452-1.228-3.983 0.319-6.119 1.355-7.042 0.105-0.095 0.21-0.183 0.314-0.272l0.004-0.004 0.939-0.696c0.571-0.361 1.1-0.563 1.709-0.655 1.301-0.196 2.359 1.176 3.136 2.173l0.182 0.231c1.613 2.034 1.768 3.002 1.718 3.396-0.056 0.438-0.722 1-1.31 1.494l-0.083 0.070c-0.003 0.003-0.004 0.007-0.007 0.010-0.004 0.003-0.008 0.004-0.013 0.007l-0.895 0.827c-0.006 0.006-0.008 0.013-0.014 0.020s-0.017 0.010-0.022 0.017c-0.139 0.155-0.258 0.311-0.354 0.472-0.503 0.841-0.977 2.58-0.228 3.926 0.654 1.176 1.898 3.034 3.042 4.535 1.196 1.45 2.72 3.097 3.709 4 0.741 0.676 1.771 0.903 2.663 0.903 0.477 0 0.916-0.066 1.247-0.16 0.175-0.050 0.356-0.123 0.542-0.214 0.011-0.006 0.017-0.015 0.028-0.022 0.006-0.003 0.014-0.001 0.020-0.006l1.039-0.65c0.034-0.022 0.056-0.052 0.084-0.080l0.013 0.014c0.64-0.444 1.369-0.965 1.826-0.889 0.405 0.049 1.323 0.438 2.939 2.478l0.186 0.234c0.787 0.981 1.865 2.325 1.362 3.5z"></path>
</symbol>
<symbol id="icon-icon" viewBox="0 0 32 32">
<path fill="none" stroke="#fff" style="stroke: var(--color1, #fff)" stroke-linejoin="miter" stroke-linecap="round" stroke-miterlimit="4" stroke-width="2" d="M8 8l8 8 8-8"></path>
<path fill="none" stroke="#fff" style="stroke: var(--color1, #fff)" stroke-linejoin="miter" stroke-linecap="round" stroke-miterlimit="4" stroke-width="2" d="M8 24l8-8 8 8"></path>
</symbol>
</defs>
</svg>
